<svg data-v-423bf9ae="" xmlns="http://www.w3.org/2000/svg" viewBox="0 0 621 90" class="iconLeft"><!----><!----><!----><g data-v-423bf9ae="" id="3b6eb7a6-8050-4275-8b60-a5b74530ba95" fill="#2e3034" transform="matrix(5.6980053264473165,0,0,5.6980053264473165,192.98090096430832,-7.735042022120943)"><path d="M4.49 14.52C6.10 14.52 7.08 13.80 7.60 12.75L6.03 11.86C5.73 12.45 5.31 12.87 4.51 12.87C3.53 12.87 3.00 12.28 3.00 11.33L3.00 10.15C3.00 9.20 3.54 8.61 4.48 8.61C5.25 8.61 5.64 9.03 5.89 9.59L7.49 8.72C6.99 7.67 6.06 6.96 4.48 6.96C2.23 6.96 0.84 8.40 0.84 10.74C0.84 13.08 2.21 14.52 4.49 14.52ZM12.60 14.52C14.85 14.52 16.23 13.08 16.23 10.74C16.23 8.40 14.85 6.96 12.60 6.96C10.35 6.96 8.97 8.40 8.97 10.74C8.97 13.08 10.35 14.52 12.60 14.52ZM12.60 12.98C11.68 12.98 11.12 12.38 11.12 11.31L11.12 10.16C11.12 9.10 11.68 8.50 12.60 8.50C13.52 8.50 14.08 9.10 14.08 10.16L14.08 11.31C14.08 12.38 13.52 12.98 12.60 12.98ZM22.30 14.35L24.37 14.35L24.37 3.99L22.30 3.99L22.30 8.44L22.20 8.44C21.84 7.57 21.22 6.96 20.06 6.96C18.47 6.96 17.35 8.12 17.35 10.74C17.35 13.36 18.47 14.52 20.06 14.52C21.22 14.52 21.84 13.90 22.20 13.03L22.30 13.03ZM20.96 12.91C20.03 12.91 19.50 12.31 19.50 11.30L19.50 10.18C19.50 9.17 20.03 8.57 20.96 8.57C21.69 8.57 22.30 8.92 22.30 9.67L22.30 11.80C22.30 12.56 21.69 12.91 20.96 12.91ZM29.60 14.52C31.15 14.52 32.13 13.93 32.69 13.24L31.57 12.03C31.12 12.56 30.52 12.92 29.67 12.92C28.56 12.92 27.96 12.29 27.96 11.37L27.96 11.24L32.90 11.24L32.90 10.63C32.90 8.37 31.57 6.96 29.41 6.96C27.24 6.96 25.90 8.40 25.90 10.77C25.90 13.08 27.17 14.52 29.60 14.52ZM29.43 8.44C30.32 8.44 30.87 9.03 30.87 9.97L30.87 10.08L27.96 10.08L27.96 9.97C27.96 9.04 28.53 8.44 29.43 8.44ZM41.03 14.35L41.03 12.74L38.22 12.74L38.22 8.74L41.03 8.74L41.03 7.13L38.22 7.13L38.22 4.58L36.32 4.58L36.32 6.27C36.32 6.92 36.08 7.13 35.46 7.13L34.19 7.13L34.19 8.74L36.15 8.74L36.15 12.26C36.15 13.48 36.86 14.35 38.36 14.35ZM47.42 14.35L49.49 14.35L49.49 7.13L47.42 7.13L47.42 11.87C47.42 12.57 46.79 12.92 46.14 12.92C45.33 12.92 44.93 12.43 44.93 11.52L44.93 7.13L42.85 7.13L42.85 11.80C42.85 13.55 43.82 14.52 45.21 14.52C46.37 14.52 47.01 13.85 47.33 13.03L47.42 13.03ZM51.23 14.35L53.30 14.35L53.30 13.03L53.40 13.03C53.76 13.90 54.38 14.52 55.54 14.52C57.13 14.52 58.25 13.36 58.25 10.74C58.25 8.12 57.13 6.96 55.54 6.96C54.38 6.96 53.76 7.57 53.40 8.44L53.30 8.44L53.30 3.99L51.23 3.99ZM54.64 12.91C53.91 12.91 53.30 12.56 53.30 11.80L53.30 9.67C53.30 8.92 53.91 8.57 54.64 8.57C55.57 8.57 56.10 9.17 56.10 10.18L56.10 11.30C56.10 12.31 55.57 12.91 54.64 12.91ZM63.20 14.52C64.75 14.52 65.73 13.93 66.29 13.24L65.17 12.03C64.72 12.56 64.12 12.92 63.27 12.92C62.16 12.92 61.56 12.29 61.56 11.37L61.56 11.24L66.50 11.24L66.50 10.63C66.50 8.37 65.17 6.96 63.01 6.96C60.84 6.96 59.50 8.40 59.50 10.77C59.50 13.08 60.77 14.52 63.20 14.52ZM63.03 8.44C63.92 8.44 64.47 9.03 64.47 9.97L64.47 10.08L61.56 10.08L61.56 9.97C61.56 9.04 62.13 8.44 63.03 8.44ZM68.24 14.35L74.35 14.35L74.35 12.74L71.97 12.74L71.97 10.60C71.97 9.73 72.51 9.03 73.53 9.03L75.07 9.03L75.07 7.13L74.38 7.13C72.95 7.13 72.34 8.11 72.07 9.17L71.97 9.17L71.97 7.13L68.24 7.13L68.24 8.74L69.90 8.74L69.90 12.74L68.24 12.74Z"></path></g><!----><g data-v-423bf9ae="" id="72c96b27-57c4-4fc3-83d8-c95a15a4ff50" transform="matrix(1.9148936170212767,0,0,1.9148936170212767,0.11638332935089579,0)" stroke="none" fill="#488eff"><path d="M2.09 24.747C.904 25.37 0 26.74 0 28.3c0 1.558.904 2.93 2.09 3.553l22.992 11.656c1.412.748 2.316.873 3.107.873 1.808 0 3.107-1.371 3.107-3.74 0-1.434-.282-2.805-2.655-3.927L10.451 28.3l18.19-8.415c2.373-1.122 2.655-2.494 2.655-3.927 0-2.37-1.3-3.74-3.107-3.74-.79 0-1.695.124-3.107.872L2.09 24.747zM37.858 36.59c-.96 3.055-1.581 4.987-1.581 6.109C36.277 45.69 38.593 47 40.4 47c2.485 0 3.107-.686 4.18-4.114L54.975 10.41c.96-3.055 1.582-4.987 1.582-6.109C56.557 1.31 54.241 0 52.433 0c-2.485 0-3.107.686-4.18 4.114L37.858 36.59zm44.525-8.29l-18.19 8.415c-2.373 1.122-2.655 2.493-2.655 3.927 0 2.369 1.299 3.74 3.107 3.74.79 0 1.694-.125 3.107-.873l22.992-11.656c1.186-.624 2.09-1.995 2.09-3.553 0-1.559-.904-2.93-2.09-3.553L67.752 13.09c-1.413-.748-2.317-.872-3.107-.872-1.808 0-3.107 1.37-3.107 3.74 0 1.433.282 2.805 2.655 3.927l18.19 8.415z"></path></g><!----></svg>